<svg xmlns="http://www.w3.org/2000/svg" width="150.001" height="18" viewBox="0 0 150.001 18">
  <g id="Group_5842" data-name="Group 5842" transform="translate(-756 -668)">
    <text id="Explore_Compare" data-name="Explore &amp; Compare" transform="translate(819 682)" fill="#ce5145" font-size="14" font-family="AirbnbCerealApp-Book, Airbnb Cereal App"><tspan x="-62" y="0">Explore &amp; Compare</tspan></text>
    <path id="icons8-right_1_" data-name="icons8-right (1)" d="M20.683,13.092a.578.578,0,0,0-.454.409.584.584,0,0,0,.164.591l5.343,5.343H8.507A.582.582,0,0,0,8.561,20.6H25.735l-5.343,5.343a.582.582,0,1,0,.818.818l6.342-6.324.4-.418-.4-.418L21.21,13.274a.584.584,0,0,0-.472-.182Z" transform="translate(878.049 656.967)" fill="#ce5145"/>
  </g>
</svg>
