<svg xmlns="http://www.w3.org/2000/svg" width="203.5" height="36.78" viewBox="0 0 203.5 36.78">
  <g id="Group_6365" data-name="Group 6365" transform="translate(0 -1.471)">
    <g id="Group_5834" data-name="Group 5834" transform="translate(0 1.471)">
      <path id="Path_3840" data-name="Path 3840" d="M35.957,21.89,33.8,24.052,31.64,26.213l-2.162,2.156L27.324,30.53,23.9,33.95a10.428,10.428,0,0,1-14.746,0L7.894,32.686,5.732,30.53,3.705,28.5l-.128-.134A12.21,12.21,0,0,1,20.845,11.1l.134.128L18.818,13.39l-2.156,2.162-.135-.134a6.105,6.105,0,0,0-8.634,8.634l.128.134,5.174,5.17a4.712,4.712,0,0,0,6.663,0l5.3-5.3,4.317-4.317,2.162-2.162a3.053,3.053,0,0,1,4.317,4.317" transform="translate(0 -7.524)" fill="#1b2346"/>
      <path id="Path_3841" data-name="Path 3841" d="M62.211,11.1a12.217,12.217,0,0,0-17.274,0l-2.156,2.156L40.62,15.418l-2.162,2.155-1.115,1.119a1.471,1.471,0,0,1-2.082,0l-.986-.986-.134-.135a3.053,3.053,0,0,0-4.317,4.317l3.8,3.8a3.786,3.786,0,0,0,5.353,0l5.957-5.958L47.1,17.573l2.156-2.155c.073-.073.153-.147.226-.214.122-.11.244-.214.372-.311a5.779,5.779,0,0,1,.617-.415A4.414,4.414,0,0,1,51,14.2a5.953,5.953,0,0,1,.83-.317c.189-.055.385-.1.574-.141a6.248,6.248,0,0,1,2.332,0c.19.037.385.085.574.141a5.969,5.969,0,0,1,.83.317,4.41,4.41,0,0,1,.531.281,5.716,5.716,0,0,1,.617.415c.128.1.25.2.373.311.073.067.153.141.226.214a6.1,6.1,0,0,1,0,8.634S47.352,35.5,46.743,36.247c-4.447,5.484-11.327,3.975-11.327,3.975l1.9,1.679a7.91,7.91,0,0,0,11.27.086L53.3,37.281l.122-.122L54.58,36l1.153-1.15,1.15-1.153L58.9,31.675,60.05,30.53l2.162-2.162a12.21,12.21,0,0,0,0-17.268" transform="translate(-19.775 -7.524)" fill="#83d147"/>
    </g>
    <g id="logo_darck_blue_v1" data-name="logo darck blue v1" transform="translate(54.644 2.843)">
      <g id="Group_5266" data-name="Group 5266" transform="translate(0)">
        <path id="Path_3843" data-name="Path 3843" d="M26.51,44.313l1.67-3.306a12.519,12.519,0,0,0,6.472,1.845c2.747,0,3.9-.765,3.9-2.055,0-3.55-11.479-.209-11.479-7.617,0-3.516,3.166-5.81,8.177-5.81a14.755,14.755,0,0,1,6.959,1.6l-1.67,3.306a10.182,10.182,0,0,0-5.323-1.393c-2.644,0-3.9.871-3.9,2.089,0,3.759,11.479.419,11.479,7.69,0,3.478-3.2,5.741-8.42,5.741A14.786,14.786,0,0,1,26.51,44.313Z" transform="translate(-26.51 -19.3)" fill="#1b2346"/>
        <path id="Path_3844" data-name="Path 3844" d="M94.081,38.259H79.505c.521,2.713,2.785,4.452,6.019,4.452a6.667,6.667,0,0,0,5.045-2.017L92.9,43.373c-1.67,1.982-4.28,3.025-7.48,3.025-6.228,0-10.262-4-10.262-9.531a9.239,9.239,0,0,1,9.6-9.5c5.426,0,9.394,3.793,9.394,9.6C94.15,37.32,94.116,37.845,94.081,38.259Zm-14.61-2.888H90.01a5.058,5.058,0,0,0-5.254-4.524A5.136,5.136,0,0,0,79.471,35.372Z" transform="translate(-56.65 -19.3)" fill="#1b2346"/>
        <path id="Path_3845" data-name="Path 3845" d="M154.347,24.07V34.716H150V24.625c0-3.306-1.636-4.9-4.417-4.9-3.1,0-5.182,1.88-5.182,5.6v9.394H136.05V8.9H140.4v9.394a8.289,8.289,0,0,1,6.194-2.367C151.041,15.927,154.347,18.469,154.347,24.07Z" transform="translate(-94.372 -7.857)" fill="#1b2346"/>
        <path id="Path_3846" data-name="Path 3846" d="M212.064,35.275V46.164h-4.105V43.9c-1.043,1.6-3.063,2.5-5.844,2.5-4.246,0-6.925-2.332-6.925-5.566,0-3.1,2.089-5.532,7.724-5.532h4.8v-.278c0-2.538-1.53-4.037-4.627-4.037a9.188,9.188,0,0,0-5.635,1.845l-1.7-3.166a13.065,13.065,0,0,1,7.861-2.294C208.971,27.376,212.064,29.918,212.064,35.275Zm-4.349,5.079V38.2H203.23c-2.956,0-3.759,1.115-3.759,2.469,0,1.564,1.32,2.576,3.55,2.576A4.732,4.732,0,0,0,207.715,40.354Z" transform="translate(-131.01 -19.306)" fill="#1b2346"/>
        <path id="Path_3847" data-name="Path 3847" d="M250.6,36.877c0-5.566,4.174-9.5,10.052-9.5,3.618,0,6.506,1.5,7.933,4.315l-3.341,1.948a5.261,5.261,0,0,0-4.627-2.576,5.452,5.452,0,0,0-5.635,5.81,5.433,5.433,0,0,0,5.635,5.81,5.253,5.253,0,0,0,4.627-2.576l3.341,1.948c-1.427,2.781-4.315,4.349-7.933,4.349C254.778,46.408,250.6,42.443,250.6,36.877Z" transform="translate(-165.338 -19.306)" fill="#83d147"/>
        <path id="Path_3848" data-name="Path 3848" d="M306.19,8.77a2.65,2.65,0,0,1,2.785-2.61,2.586,2.586,0,0,1,2.781,2.5,2.787,2.787,0,0,1-5.566.107Zm.594,5.669h4.349V33.018h-4.349Z" transform="translate(-199.777 -6.16)" fill="#83d147"/>
        <path id="Path_3849" data-name="Path 3849" d="M341.316,38.806a6.842,6.842,0,0,1-4.174,1.252c-4.071,0-6.4-2.157-6.4-6.263V24.854H327.68V21.376h3.063V17.13h4.349v4.246h4.977v3.478h-4.977v8.835c0,1.807.906,2.781,2.576,2.781a3.913,3.913,0,0,0,2.435-.765Z" transform="translate(-213.09 -12.956)" fill="#83d147"/>
        <path id="Path_3850" data-name="Path 3850" d="M384.49,27.92l-8.7,20.074c-2.374,4.908-4.942,5.966-7.012,5.627a4.279,4.279,0,0,1-3.39-5.034h0a4.71,4.71,0,0,0,3.2,1.286c1.53,0,2.435-.731,3.272-2.576l.312-.731-8.1-18.647h4.524l5.844,13.743,5.878-13.743h4.174Z" transform="translate(-235.635 -19.641)" fill="#83d147"/>
      </g>
    </g>
  </g>
</svg>
