<svg id="Group_6547" data-name="Group 6547" xmlns="http://www.w3.org/2000/svg" xmlns:xlink="http://www.w3.org/1999/xlink" width="39.429" height="50.944" viewBox="0 0 39.429 50.944">
  <defs>
    <clipPath id="clip-path">
      <rect id="Rectangle_4046" data-name="Rectangle 4046" width="39.429" height="50.944" fill="none"/>
    </clipPath>
  </defs>
  <g id="Group_6546" data-name="Group 6546" clip-path="url(#clip-path)">
    <path id="Path_4404" data-name="Path 4404" d="M3.451,62.368c-.058-.079-.151-.058-.228-.075A3.976,3.976,0,0,1,.012,58.321q0-17.984,0-35.967a13.116,13.116,0,0,1,.054-2.061A3.982,3.982,0,0,1,3.868,17c1.691-.015,3.383,0,5.074-.008.19,0,.237.059.234.24-.01.622-.013,1.244,0,1.865,0,.221-.048.294-.283.292-1.6-.011-3.2-.006-4.8-.005a1.59,1.59,0,0,0-1.693,1.7q0,18.593,0,37.186a1.6,1.6,0,0,0,1.709,1.71q15.622,0,31.243,0A1.592,1.592,0,0,0,37.039,58.3q0-18.605,0-37.211a1.594,1.594,0,0,0-1.716-1.7c-1.6,0-3.2,0-4.8,0-.209,0-.265-.059-.261-.264.013-.63.01-1.26,0-1.89,0-.178.038-.243.232-.243,1.683.008,3.366-.008,5.05.008a3.964,3.964,0,0,1,3.883,4.01q.008,4.875,0,9.751,0,13.755,0,27.51a3.991,3.991,0,0,1-2.519,3.82c-.315.126-.651.169-.97.278Z" transform="translate(0 -11.424)" fill="#1b2346"/>
    <path id="Path_4405" data-name="Path 4405" d="M26.01,58.6a1.18,1.18,0,0,1,.744-1.081,1.153,1.153,0,0,1,1.318.3c.666.738,1.327,1.481,1.974,2.236.162.189.239.159.385-.007q1.9-2.14,3.8-4.269a1.348,1.348,0,0,1,.645-.443,1.185,1.185,0,0,1,1.323.5,1.169,1.169,0,0,1-.112,1.43c-.5.575-1.013,1.14-1.522,1.708l-3.4,3.8a1.182,1.182,0,0,1-1.893,0q-1.451-1.637-2.9-3.276a1.255,1.255,0,0,1-.369-.894" transform="translate(-17.487 -37.179)" fill="#1b2346"/>
    <path id="Path_4406" data-name="Path 4406" d="M50.757,4.054c0-.214-.048-.281-.272-.279-1.417.011-2.835,0-4.252.009-.176,0-.257-.024-.268-.235a4.111,4.111,0,0,0-.919-2.4A2.7,2.7,0,0,0,43.418.133C43.177.086,42.935.044,42.693,0H40.8c-.054.073-.136.047-.206.055a2.9,2.9,0,0,0-2.03,1.074,4.155,4.155,0,0,0-.937,2.415c-.011.205-.081.241-.263.24-1.426-.006-2.852,0-4.278-.007-.2,0-.25.054-.249.249q.01,2.736,0,5.471c0,.213.067.258.267.258q8.692-.008,17.383,0c.229,0,.27-.072.269-.281q-.012-2.711,0-5.421M41.822,5.572a1.79,1.79,0,1,1,1.765-1.808,1.794,1.794,0,0,1-1.765,1.808" transform="translate(-22.078)" fill="#1b2346"/>
    <path id="Path_4407" data-name="Path 4407" d="M74.972,56.161c0-.241-.074-.307-.312-.305-1.55.01-3.1,0-4.651,0H65.359c-.329,0-.331,0-.331.323q0,4.663,0,9.327c0,.241.069.307.308.306q4.676-.011,9.352,0c.241,0,.288-.087.288-.3q-.007-4.676,0-9.352m-1.583,7.78c0,.219-.061.283-.28.281-1.036-.011-2.072,0-3.108,0s-2.055-.007-3.083,0c-.233,0-.316-.055-.315-.3.009-2.047,0-4.094.006-6.141,0-.325,0-.327.331-.327,2.055,0,4.111,0,6.166,0,.214,0,.284.055.283.278q-.012,3.108,0,6.215" transform="translate(-43.717 -37.554)" fill="#e67e22"/>
    <path id="Path_4408" data-name="Path 4408" d="M34.888,96.245c0-.242-.075-.307-.312-.305-1.55.009-3.1,0-4.651,0H25.273c-.329,0-.331,0-.331.323q0,4.663,0,9.327c0,.242.071.306.308.306q4.664-.011,9.327,0c.233,0,.315-.057.314-.3q-.011-4.676,0-9.352M33.3,100.926c0,1.036,0,2.072,0,3.108,0,.2-.05.273-.262.273q-3.12-.01-6.241,0c-.222,0-.282-.071-.281-.285q.01-3.095,0-6.191c0-.222.06-.3.293-.3q3.108.012,6.216,0c.226,0,.277.075.275.287-.009,1.036,0,2.071,0,3.108" transform="translate(-16.767 -64.504)" fill="#e67e22"/>
    <path id="Path_4409" data-name="Path 4409" d="M74.971,96.267c0-.236-.044-.332-.311-.331q-4.677.014-9.353,0c-.211,0-.287.05-.286.276q.011,4.688,0,9.377c0,.239.066.307.306.306q4.651-.012,9.3-.006c.333,0,.334,0,.334-.322q0-2.313,0-4.627h0c0-1.559,0-3.117,0-4.676m-1.583,7.781c0,.195-.06.256-.255.255q-3.132-.009-6.265,0c-.214,0-.264-.08-.263-.277q.008-3.108,0-6.215c0-.219.069-.283.286-.281,1.044.01,2.089,0,3.132,0,1.028,0,2.055.006,3.083,0,.215,0,.284.056.283.279q-.011,3.12,0,6.24" transform="translate(-43.717 -64.501)" fill="#e67e22"/>
  </g>
</svg>
