<svg xmlns="http://www.w3.org/2000/svg" width="16" height="16.676" viewBox="0 0 16 16.676">
  <path id="icons8-umbrella" d="M10.99,1.986a.667.667,0,0,0-.656.676v.7A8.024,8.024,0,0,0,3,10.662a.667.667,0,0,0,.667.667c.368,0,1.333-.667,2-.667s1.333.667,2,.667S9,10.663,11,10.662s2.667.667,3.333.667,1.333-.667,2-.667,1.632.667,2,.667A.667.667,0,0,0,19,10.662a8.024,8.024,0,0,0-7.333-7.3v-.7a.667.667,0,0,0-.677-.676Zm0,10a.667.667,0,0,0-.1.009h-.56v4.667a.667.667,0,1,1-1.333,0V16a.667.667,0,1,0-1.333,0v.667a2,2,0,0,0,4,0V12H11.1a.667.667,0,0,0-.113-.009Z" transform="translate(-3 -1.986)" fill="#1d2344"/>
</svg>
