<svg id="Group_6555" data-name="Group 6555" xmlns="http://www.w3.org/2000/svg" xmlns:xlink="http://www.w3.org/1999/xlink" width="49.333" height="50.944" viewBox="0 0 49.333 50.944">
  <defs>
    <clipPath id="clip-path">
      <rect id="Rectangle_4050" data-name="Rectangle 4050" width="49.333" height="50.944" fill="none"/>
    </clipPath>
  </defs>
  <g id="Group_6554" data-name="Group 6554" clip-path="url(#clip-path)">
    <path id="Path_4427" data-name="Path 4427" d="M74.622,150.285a6.21,6.21,0,0,1-5.936-4.276,6.005,6.005,0,0,1-.115-2.938,1.483,1.483,0,0,1,1.412-1.249,1.624,1.624,0,0,1,1.706,1.1,2.1,2.1,0,0,1,.015.9,2.639,2.639,0,0,0,1.152,2.693,2.741,2.741,0,0,0,3.041.21,2.849,2.849,0,0,0,1.4-3.107q-.482-2.456-.957-4.914a1.625,1.625,0,0,1,.118-.983.321.321,0,0,1,.259-.206c.667-.125,1.335-.25,2-.386a.316.316,0,0,1,.314.1,1.671,1.671,0,0,1,.488.918c.335,1.729.718,3.45.993,5.188a6.023,6.023,0,0,1-5.886,6.959" transform="translate(-49.656 -99.478)" fill="#8448a7"/>
    <path id="Path_4428" data-name="Path 4428" d="M74.622,150.285a6.21,6.21,0,0,1-5.936-4.276,6.005,6.005,0,0,1-.115-2.938,1.483,1.483,0,0,1,1.412-1.249,1.624,1.624,0,0,1,1.706,1.1,2.1,2.1,0,0,1,.015.9,2.639,2.639,0,0,0,1.152,2.693,2.741,2.741,0,0,0,3.041.21,2.849,2.849,0,0,0,1.4-3.107q-.482-2.456-.957-4.914a1.625,1.625,0,0,1,.118-.983.321.321,0,0,1,.259-.206c.667-.125,1.335-.25,2-.386a.316.316,0,0,1,.314.1,1.671,1.671,0,0,1,.488.918c.335,1.729.718,3.45.993,5.188A6.023,6.023,0,0,1,74.622,150.285Z" transform="translate(-49.656 -99.478)" fill="none" stroke="#fff" stroke-width="1"/>
    <path id="Path_4429" data-name="Path 4429" d="M87.983,76.32c.441-.006.444-.007.515.354q1.3,6.668,2.6,13.337c.074.379.138.76.226,1.135.046.2-.032.25-.2.281-.635.116-1.271.233-1.9.37-.215.046-.258-.045-.291-.22-.225-1.178-.459-2.355-.688-3.532Q87.164,82.524,86.089,77c-.075-.384-.075-.383.308-.476a8.862,8.862,0,0,1,1.586-.208" transform="translate(-62.431 -55.37)" fill="#1b2346"/>
    <path id="Path_4430" data-name="Path 4430" d="M3.25,24.875a21.611,21.611,0,0,1,1.283-5.6A21.962,21.962,0,0,1,10.8,10.329a5.2,5.2,0,0,0,.461-.421.57.57,0,0,0,.044-.8.593.593,0,0,0-.833-.152,1.749,1.749,0,0,0-.288.221A22.938,22.938,0,0,0,1.9,25.947a4.309,4.309,0,0,1-.18,1.123.865.865,0,0,1-1,.688A.827.827,0,0,1,0,26.825a22.56,22.56,0,0,1,1.759-8.512C4.542,11.791,9.421,7.46,15.931,4.856a27.211,27.211,0,0,1,4.281-1.287c.428-.094.528-.268.433-.676C20.507,2.3,20.41,1.7,20.312,1.1A.852.852,0,0,1,20.957.026a.864.864,0,0,1,1.066.736c.136.61.258,1.224.339,1.843.059.445.24.565.688.51a25.953,25.953,0,0,1,11.71,1.13A23.071,23.071,0,0,1,49.2,17.664c.247.587.155.978-.262,1.232a.819.819,0,0,1-1.179-.256,2.083,2.083,0,0,0-.632-.6,10.1,10.1,0,0,0-13.33,1.85,1.5,1.5,0,0,0-.485,1.2.724.724,0,0,1-.631.874.812.812,0,0,1-.982-.584,1.306,1.306,0,0,0-.716-.823,10.089,10.089,0,0,0-12.857,2.3,1.422,1.422,0,0,0-.45,1.109.766.766,0,0,1-.7.884.755.755,0,0,1-.94-.617,1.339,1.339,0,0,0-.829-.92A10.114,10.114,0,0,0,3.762,24.455c-.13.11-.263.216-.512.42" transform="translate(0 0)" fill="#1b2346"/>
  </g>
</svg>
