<svg id="Group_6553" data-name="Group 6553" xmlns="http://www.w3.org/2000/svg" xmlns:xlink="http://www.w3.org/1999/xlink" width="55.074" height="46.475" viewBox="0 0 55.074 46.475">
  <defs>
    <clipPath id="clip-path">
      <rect id="Rectangle_4049" data-name="Rectangle 4049" width="55.074" height="46.475" fill="none"/>
    </clipPath>
  </defs>
  <g id="Group_6552" data-name="Group 6552" clip-path="url(#clip-path)">
    <path id="Path_4421" data-name="Path 4421" d="M0,71.038a17.4,17.4,0,0,1,.908-2.2A16.19,16.19,0,0,1,3.4,65.182c.055-.059.113-.115.171-.171a.166.166,0,0,1,.053-.02c.068.086.034.187.034.28q0,3.025,0,6.05a2.063,2.063,0,0,0,1.71,2.209,2.661,2.661,0,0,0,1.039.075,1.864,1.864,0,0,0,1.447-.95,20.559,20.559,0,0,1,2.8-3.8c.172-.182.35-.361.535-.53a2.039,2.039,0,0,1,1.275-.571,1.439,1.439,0,0,1,1.544,1.892,2.35,2.35,0,0,1-.485.919c-.578.7-1.133,1.411-1.655,2.151A8.532,8.532,0,0,0,10.373,77a34.2,34.2,0,0,1-.479,4.27,12.729,12.729,0,0,1-.355,1.295.306.306,0,0,1-.274.245A24.606,24.606,0,0,1,4.358,83a19.6,19.6,0,0,1-3.3-.4C.57,82.5.572,82.5.528,82.022.347,80.05.164,78.079.054,76.1c0-.06.014-.128-.054-.169Z" transform="translate(0 -42.305)" fill="#1b2346"/>
    <path id="Path_4422" data-name="Path 4422" d="M89.714,85.558c-.392-1.917-.848-3.74-1.372-5.545-.422-1.454-.905-2.887-1.395-4.319A1.653,1.653,0,1,1,90.08,74.64c.571,1.612,1.1,3.237,1.565,4.884q.156.553.313,1.105c.1-.027.131-.1.178-.149a1.641,1.641,0,0,1,2.379-.056c.12.118.176.14.312.013a1.619,1.619,0,0,1,2.3.022c.116.111.165.124.29.006a1.641,1.641,0,0,1,2.674.485,17.806,17.806,0,0,1,1.444,4.9,37.406,37.406,0,0,1,.439,5.54.7.7,0,0,1-.22.547,5.132,5.132,0,0,1-1.7,1.065,16.652,16.652,0,0,1-7.725,1.247.72.72,0,0,1-.634-.39,33.453,33.453,0,0,0-2.869-4.283,18.225,18.225,0,0,0-3.7-3.452,1.636,1.636,0,0,1-.743-1.105,1.651,1.651,0,0,1,2.5-1.7,15.174,15.174,0,0,1,2.609,2.021c.057.054.116.106.228.208" transform="translate(-54.909 -47.83)" fill="#1b2346"/>
    <path id="Path_4423" data-name="Path 4423" d="M78.05,36.094A9.208,9.208,0,0,1,75.037,42.9c-.188.176-.3.234-.495-.015a2.36,2.36,0,0,0-1.143-.775c-.291-.1-.137-.173-.012-.275A7.312,7.312,0,0,0,73,30.1a7.317,7.317,0,1,0-5.107,13.258,7.677,7.677,0,0,0,1.743.015c.163-.016.254-.022.149.18a2.589,2.589,0,0,0-.281,1.458c.022.229-.077.268-.272.277a9.19,9.19,0,1,1,8.712-10.534c.065.444.077.892.1,1.339" transform="translate(-38.802 -17.521)" fill="#5fa02e"/>
    <path id="Path_4424" data-name="Path 4424" d="M50.892,98.636c-.172.14-.294.228-.4.329a2.915,2.915,0,0,0-.982,2.216c0,.2-.057.256-.256.256q-8.131-.007-16.262,0c-.191,0-.269-.027-.244-.25q.127-1.134.21-2.273c.017-.243.117-.282.334-.281q5.4.009,10.806,0h6.8" transform="translate(-21.311 -64.202)" fill="#1b2346"/>
    <path id="Path_4425" data-name="Path 4425" d="M77.653,44.481q0-2.029,0-4.058a.609.609,0,0,1,.192-.534.563.563,0,0,1,.7.02q1.667,1.006,3.339,2.006l3.271,1.963c.593.356.6.835.007,1.191q-3.293,1.978-6.589,3.953c-.542.325-.916.119-.917-.509,0-1.344,0-2.687,0-4.031" transform="translate(-50.546 -25.891)" fill="#5fa02e"/>
    <path id="Path_4426" data-name="Path 4426" d="M64.256,2.909A3.517,3.517,0,0,0,60.636,0c-4.885.037-9.77.012-14.655.012q-14.1,0-28.208,0a3.461,3.461,0,0,0-3.6,3.586q0,1.627,0,3.254,0,11.146,0,22.292a.8.8,0,0,0,.067.419,1.157,1.157,0,0,0,1.871.034,21.157,21.157,0,0,1,3.09-4.085.515.515,0,0,0,.136-.412q0-10.73,0-21.459c0-.644.231-.877.87-.877H57.558c.7,0,.933.228.933.933q0,8.121,0,16.242,0,6.817,0,13.634a.759.759,0,0,1-.858.86c-.367,0-.735.011-1.1,0-.214-.009-.262.044-.188.252a14.123,14.123,0,0,1,.58,2.289c.034.2.1.266.3.265,1.21-.01,2.42,0,3.63-.008a3.374,3.374,0,0,0,2.765-1.416,4.009,4.009,0,0,0,.678-1.647V2.971c-.015-.021-.04-.04-.043-.062M61.4,19.65a1.065,1.065,0,0,1-1.076-1.072,1.075,1.075,0,0,1,2.15,0A1.066,1.066,0,0,1,61.4,19.65" transform="translate(-9.225 0)" fill="#1b2346"/>
  </g>
</svg>
