<svg id="Group_6551" data-name="Group 6551" xmlns="http://www.w3.org/2000/svg" xmlns:xlink="http://www.w3.org/1999/xlink" width="55.074" height="45.196" viewBox="0 0 55.074 45.196">
  <defs>
    <clipPath id="clip-path">
      <rect id="Rectangle_4048" data-name="Rectangle 4048" width="55.074" height="45.196" fill="none"/>
    </clipPath>
  </defs>
  <g id="Group_6550" data-name="Group 6550" clip-path="url(#clip-path)">
    <path id="Path_4415" data-name="Path 4415" d="M37.109,13.9a1.809,1.809,0,0,1-1.575-1.1,1.816,1.816,0,0,1,.294-2.08c1.116-1.285,2.247-2.558,3.372-3.835Q41.9,3.818,44.6.752A1.94,1.94,0,0,1,46.014.023a1.837,1.837,0,0,1,1.823,1.049A1.788,1.788,0,0,1,47.6,3.156c-.678.811-1.391,1.593-2.089,2.386q-3.34,3.792-6.679,7.585a2.093,2.093,0,0,1-1.723.771" transform="translate(-21.166 -0.013)" fill="#1b2346"/>
    <path id="Path_4416" data-name="Path 4416" d="M72.174,0a2.027,2.027,0,0,1,1.554.724q1.888,2.15,3.783,4.294c1.083,1.23,2.163,2.463,3.252,3.687.147.165.176.237-.053.353a12.043,12.043,0,0,0-2.742,1.919c-.142.131-.212.15-.352-.01Q74.215,7.09,70.8,3.222a1.828,1.828,0,0,1-.33-2.1A1.862,1.862,0,0,1,72.174,0" transform="translate(-42.101)" fill="#1b2346"/>
    <path id="Path_4417" data-name="Path 4417" d="M32.593,48.46a12.828,12.828,0,0,1-.056-9.571c.139-.363.143-.361-.256-.361H10.88q-4.719,0-9.437,0a1.316,1.316,0,0,0-1.4.948A.32.32,0,0,1,0,39.541v.538a3.632,3.632,0,0,0,.267.521,1.451,1.451,0,0,0,1.3.5c.413-.016.41,0,.484.392.439,2.314.884,4.626,1.313,6.941.048.257.14.329.4.329q14.317-.01,28.634-.007c.32,0,.319,0,.2-.3M8.485,46.167a2.3,2.3,0,1,1,2.329-2.307,2.3,2.3,0,0,1-2.329,2.307" transform="translate(0 -23.081)" fill="#1b2346"/>
    <path id="Path_4418" data-name="Path 4418" d="M106.083,33.941a10.374,10.374,0,0,0-10.974-8.576,10.352,10.352,0,0,0-8.118,15.8A10.151,10.151,0,0,0,97.1,45.977a10.323,10.323,0,0,0,8.868-7.945c.107-.478.182-.963.271-1.445V34.974c-.051-.345-.1-.69-.155-1.033M95.824,43.459a7.758,7.758,0,1,1,7.785-7.751,7.768,7.768,0,0,1-7.785,7.751" transform="translate(-51.164 -15.18)" fill="#ce5145"/>
    <path id="Path_4419" data-name="Path 4419" d="M56.064,74.511a11.737,11.737,0,0,1-2.276.8.372.372,0,0,0-.323.351c-.151.846-.329,1.688-.469,2.535-.043.26-.152.3-.386.3-2.357-.008-4.715-.005-7.072-.006-.394,0-.388,0-.346-.4.106-1.042.2-2.086.313-3.128a.3.3,0,0,0-.21-.367,12.389,12.389,0,0,1-3.455-2.243.771.771,0,0,0-.575-.213c-2.07.008-4.141,0-6.211.011-.265,0-.338-.075-.322-.331.022-.348-.006-.7.01-1.048.009-.206-.068-.259-.263-.256-.69.01-1.38.008-2.07,0-.182,0-.255.05-.248.242.012.385,0,.771.006,1.156,0,.172-.047.233-.226.233q-4.02-.008-8.039,0c-.18,0-.228-.073-.239-.236-.028-.384-.081-.767-.1-1.151-.011-.184-.076-.247-.26-.245q-1.048.012-2.1,0c-.191,0-.253.059-.231.249.046.383.071.767.116,1.149.021.179-.039.233-.217.233q-3.952-.007-7.9,0c-.16,0-.218-.057-.243-.207-.063-.38-.152-.755-.208-1.135-.032-.217-.113-.3-.344-.291-.636.017-1.273.005-1.909.006-.431,0-.427,0-.345.434.765,4.02,1.586,8.03,2.273,12.063a5.083,5.083,0,0,0,5.28,4.418c2.319-.071,4.642-.015,6.963-.015q12.664,0,25.328,0a4.814,4.814,0,0,0,4.836-3.934c.506-2.519.967-5.048,1.447-7.572.093-.49.185-.981.278-1.474a.427.427,0,0,0-.256.072m-42.139,3.78q-.308-1.662-.633-3.321c-.044-.221.041-.257.234-.256,1.263.006,2.525,0,3.788,0s2.507,0,3.76,0c.211,0,.3.053.32.274.1,1.1.208,2.192.322,3.286.02.185-.042.229-.215.229q-3.667-.007-7.333,0c-.159,0-.215-.059-.243-.209m8.908,6.557q-2.81,0-5.62,0a2.3,2.3,0,0,1-2.428-2.043c-.088-.485-.163-.973-.28-1.45-.067-.272.034-.288.256-.287,2.125.006,4.249,0,6.373,0,.215,0,.431.008.645,0,.162-.008.212.053.228.211a9.517,9.517,0,0,0,.366,2,6.078,6.078,0,0,0,.778,1.52.555.555,0,0,1-.319.044m1.457-6.593q-.145-1.645-.324-3.286c-.024-.217.04-.257.237-.256,1.281.007,2.561,0,3.842,0s2.543.007,3.815-.006c.253,0,.312.079.309.319-.012,1.065-.01,2.131,0,3.2,0,.2-.044.277-.265.277q-3.667-.012-7.334,0c-.189,0-.26-.045-.278-.247m7.878,6.329c0,.216-.068.271-.275.269-1.165-.008-2.33-.029-3.495,0a3.46,3.46,0,0,1-3.715-3.049c-.157-.734-.152-.735.592-.734h3.118c1.156,0,2.312.006,3.468,0,.225,0,.31.043.307.291-.014,1.075-.012,2.151,0,3.226m10.121-3.248a5.173,5.173,0,0,1-.608,1.851,3.107,3.107,0,0,1-2.7,1.643c-1.342.045-2.687.013-4.031.02-.161,0-.218-.051-.217-.216.005-1.12.007-2.24,0-3.359,0-.2.1-.207.251-.206q1.774,0,3.548,0c1.174,0,2.347,0,3.521,0,.214,0,.271.045.236.269m.633-6.353c-.118,1.113-.224,2.228-.329,3.342-.012.122-.057.182-.182.172-.045,0-.089,0-.134,0-2.41,0-4.821,0-7.231.006-.245,0-.316-.065-.314-.312q.02-1.6,0-3.2c0-.232.075-.282.291-.281,1.272.009,2.545,0,3.817,0s2.545,0,3.817,0c.2,0,.287.044.264.27M52.4,81.356c-.132.557-.21,1.127-.333,1.686a2.238,2.238,0,0,1-2.213,1.8c-1.962.014-3.925.006-5.887,0-.065,0-.156.038-.193-.043-.028-.062.039-.113.073-.163a6.363,6.363,0,0,0,1.009-3.08c.006-.062.015-.125.016-.187,0-.225.087-.314.337-.311,1.156.015,2.312.007,3.468.007s2.311,0,3.467,0c.224,0,.32.02.256.289" transform="translate(-5.913 -42.243)" fill="#1b2346"/>
    <path id="Path_4420" data-name="Path 4420" d="M101.372,41.923a2.491,2.491,0,0,0-2.349,2.625c0,2.193,1.722,4.634,4.752,6.186a.581.581,0,0,0,.52,0c3.027-1.55,4.749-3.993,4.749-6.186,0-2.525-2.774-3.479-4.626-1.765a.562.562,0,0,1-.769,0,3.064,3.064,0,0,0-2.277-.86" transform="translate(-59.319 -25.111)" fill="#ce5145"/>
  </g>
</svg>
