<svg xmlns="http://www.w3.org/2000/svg" width="14.39" height="16" viewBox="0 0 14.39 16">
  <path id="icons8-planner_2_" data-name="icons8-planner (2)" d="M6.185,1.986A.8.8,0,0,0,5.4,2.8v.8H4.6A1.611,1.611,0,0,0,3,5.2V16.387a1.611,1.611,0,0,0,1.6,1.6H15.791a1.611,1.611,0,0,0,1.6-1.6V5.2a1.611,1.611,0,0,0-1.6-1.6h-.8V2.8a.8.8,0,1,0-1.6,0v.8H7V2.8a.8.8,0,0,0-.812-.81ZM4.6,7.593H15.791v8.794H4.6Zm6.4,3.2a.8.8,0,0,0-.8.8v2.4a.8.8,0,0,0,.8.8h2.4a.8.8,0,0,0,.8-.8v-2.4a.8.8,0,0,0-.8-.8Z" transform="translate(-3 -1.986)" fill="#1d2344"/>
</svg>
